<svg xmlns="http://www.w3.org/2000/svg" xmlns:xlink="http://www.w3.org/1999/xlink" width="279.728" height="158.508" viewBox="0 0 279.728 158.508">
  <defs>
    <clipPath id="clip-path">
      <rect id="長方形_23410" data-name="長方形 23410" width="279.728" height="126.508" fill="none"/>
    </clipPath>
  </defs>
  <g id="グループ_9422" data-name="グループ 9422" transform="translate(-336.136 -23.492)">
    <text id="area_platform" data-name="area platform" transform="translate(408.004 176)" fill="#600d15" font-size="20" font-family="ZenMaruGothic-Black, Zen Maru Gothic" font-weight="800" letter-spacing="0.1em"><tspan x="0" y="0">area platform</tspan></text>
    <g id="グループ_9421" data-name="グループ 9421" transform="translate(336.136 23.492)">
      <g id="グループ_9420" data-name="グループ 9420" clip-path="url(#clip-path)">
        <path id="パス_44057" data-name="パス 44057" d="M84.245,86.912A4.163,4.163,0,0,1,81.3,85.2a4.944,4.944,0,0,1-.911-3.483q.246-1.93.332-5.176t.117-6.868q.03-3.622-.066-6.953t-.291-5.432a4.352,4.352,0,0,1,1.069-3.457A4.46,4.46,0,0,1,84.7,52.265a4.726,4.726,0,0,1,3.386,1.027,4.15,4.15,0,0,1,1.564,3.1q.12,2.1.2,5.652t.076,7.513q-.012,3.961-.078,7.581t-.327,5.85a3.85,3.85,0,0,1-1.759,3.05,5.364,5.364,0,0,1-3.518.872" transform="translate(9.149 5.949)" fill="#9f8b64"/>
        <path id="パス_44058" data-name="パス 44058" d="M87.668,120.194a4.208,4.208,0,0,1-3.545.373,4.623,4.623,0,0,1-2.8-2.239,4.687,4.687,0,0,1-.41-3.507,4.46,4.46,0,0,1,2.126-2.761,34.687,34.687,0,0,0,7.761-5.634c9.639-9.519,13.514-25.379,13.514-38.44q0-3.134-.186-6.716a56.942,56.942,0,0,0-.56-5.9,4.394,4.394,0,0,1,1.008-3.433,4.6,4.6,0,0,1,3.1-1.716,4.358,4.358,0,0,1,3.4.97,4.577,4.577,0,0,1,1.679,3.133,36.68,36.68,0,0,1,.411,4.292q.112,2.5.149,4.963t.037,4.4c0,19.7-7.788,42.122-25.679,52.207" transform="translate(9.192 5.714)" fill="#600d15"/>
        <path id="パス_44059" data-name="パス 44059" d="M12.533,69.577H50.369a4.4,4.4,0,0,0,3.284-1.38,4.609,4.609,0,0,0-3.284-7.874H12.533A4.618,4.618,0,0,0,9.249,68.2a4.4,4.4,0,0,0,3.284,1.38" transform="translate(0.9 6.867)" fill="#600d15"/>
        <path id="パス_44060" data-name="パス 44060" d="M34.178,84.2V75.028a4.627,4.627,0,0,0-9.254,0V84.2a4.627,4.627,0,0,0,9.254,0" transform="translate(2.837 8.015)" fill="#9f8b64"/>
        <path id="パス_44061" data-name="パス 44061" d="M63.77,90.023a4.347,4.347,0,0,0-3.247-1.343H4.552a4.379,4.379,0,0,0-3.209,1.343,4.64,4.64,0,0,0,0,6.53,4.323,4.323,0,0,0,3.209,1.381H60.523a4.291,4.291,0,0,0,3.247-1.381,4.736,4.736,0,0,0,0-6.53" transform="translate(0 10.095)" fill="#4c799c"/>
        <path id="パス_44062" data-name="パス 44062" d="M182.839,68.39a3.816,3.816,0,0,0-4.53,2.225c-.033.079-.068.158-.1.239a46.042,46.042,0,0,1-11.679,15.895c-5.349,4.876-19.01,14.306-26.771,17.788a4.285,4.285,0,0,0-2.388,2.574,4.792,4.792,0,0,0,.075,3.62,4.721,4.721,0,0,0,2.612,2.426,4.412,4.412,0,0,0,3.507-.038c8.9-3.98,23.535-14.142,29.682-19.989a57.2,57.2,0,0,0,13.619-19.216l.017-.042a3.794,3.794,0,0,0-2.537-5.069Z" transform="translate(15.602 7.77)" fill="#4c799c"/>
        <path id="パス_44063" data-name="パス 44063" d="M144.85,64.767h27.985c.281,0,.549.008,6.334.02a4.609,4.609,0,0,0,.043-9.217c-4.766-.035-5.372-.057-6-.057H144.85a4.383,4.383,0,0,0-3.209,1.343,4.64,4.64,0,0,0,0,6.53,4.318,4.318,0,0,0,3.209,1.38" transform="translate(15.972 6.32)" fill="#600d15"/>
        <path id="パス_44064" data-name="パス 44064" d="M196.915,52.02a7.192,7.192,0,0,0-5.262-2.2,7.538,7.538,0,1,0,0,15.076,7.183,7.183,0,0,0,5.262-2.2,7.568,7.568,0,0,0,0-10.672m-2.985,7.612a3.094,3.094,0,0,1-2.277.933,3.214,3.214,0,0,1-2.313-.933,3.155,3.155,0,0,1,0-4.552,3.222,3.222,0,0,1,2.313-.932,3.219,3.219,0,0,1,2.277,5.485" transform="translate(20.96 5.671)" fill="#9f8b64"/>
        <path id="パス_44065" data-name="パス 44065" d="M217.613,60.71h28.508a4.381,4.381,0,0,0,3.171-1.269,4.2,4.2,0,0,0,1.305-3.134,4.288,4.288,0,0,0-1.305-3.209,4.385,4.385,0,0,0-3.171-1.269H217.613A4.517,4.517,0,0,0,214.4,53.1a4.226,4.226,0,0,0-1.343,3.209,4.138,4.138,0,0,0,1.343,3.134,4.512,4.512,0,0,0,3.21,1.269" transform="translate(24.255 5.9)" fill="#4c799c"/>
        <path id="パス_44066" data-name="パス 44066" d="M251.9,66.2a5.017,5.017,0,0,0-3.655-1.438h-2.453v.117c-1.871-.07-4.893-.117-5-.117H213.324a4.516,4.516,0,0,0-3.209,1.268,4.227,4.227,0,0,0-1.342,3.209,4.345,4.345,0,0,0,1.21,3.114,5.02,5.02,0,0,0,3.655,1.438h26.777c.043,0,3.381-.039,5.374-.1v.1h2.766a4.52,4.52,0,0,0,3.21-1.268,4.227,4.227,0,0,0,1.342-3.209A4.341,4.341,0,0,0,251.9,66.2" transform="translate(23.767 7.372)" fill="#600d15"/>
        <path id="パス_44067" data-name="パス 44067" d="M255.2,80.877a4.381,4.381,0,0,0-8.407-1.96,2.08,2.08,0,0,0-.476.584A34.416,34.416,0,0,1,235.4,91.195a52.651,52.651,0,0,1-16.593,7.5,4.634,4.634,0,0,0-3.225,5.653,4.318,4.318,0,0,0,2.124,2.808,4.674,4.674,0,0,0,3.448.488,59.658,59.658,0,0,0,19.83-9.263,44.3,44.3,0,0,0,13.252-14.706q.349-.647.649-1.274a1.948,1.948,0,0,0,.17-.62,4.349,4.349,0,0,0,.146-.9" transform="translate(24.522 8.68)" fill="#9f8b64"/>
        <path id="パス_44068" data-name="パス 44068" d="M128.467,15.781h0c-.8-1.1-1.662-2.2-2.562-3.27s-1.764-2-2.566-2.775a2.065,2.065,0,0,0-1.53-.6,2.087,2.087,0,0,0-1.523.691,2.044,2.044,0,0,0-.571,1.552,2.139,2.139,0,0,0,.711,1.5,25.42,25.42,0,0,1,2.214,2.357c.763.913,1.513,1.878,2.227,2.865a25.1,25.1,0,0,1,1.807,2.875,2.126,2.126,0,0,0,1.3,1.021,2.219,2.219,0,0,0,.647.1,2.012,2.012,0,0,0,1-.267,2.143,2.143,0,0,0,1.02-1.281,2.009,2.009,0,0,0-.166-1.624,29.356,29.356,0,0,0-2.009-3.139" transform="translate(13.628 1.04)" fill="#4c799c"/>
        <path id="パス_44069" data-name="パス 44069" d="M159.708,8.159c.487.352.99.753,1.495,1.187s.975.874,1.425,1.322a1.822,1.822,0,0,0,1.265.487,1.563,1.563,0,0,0,1.243-.589,1.781,1.781,0,0,0,.466-1.294,1.716,1.716,0,0,0-.573-1.256c-.442-.389-.977-.82-1.631-1.319a14.883,14.883,0,0,0-1.64-1.114A2.116,2.116,0,0,0,160.5,5.23a1.457,1.457,0,0,0-1.145.63,1.479,1.479,0,0,0-.3,1.264,1.794,1.794,0,0,0,.646,1.034" transform="translate(18.103 0.595)" fill="#600d15"/>
        <path id="パス_44070" data-name="パス 44070" d="M166.048,3.309a18.336,18.336,0,0,0-1.691-1.044,1.975,1.975,0,0,0-1.273-.309,1.564,1.564,0,0,0-1.135.724,1.454,1.454,0,0,0-.223,1.243,1.906,1.906,0,0,0,.668,1,34.712,34.712,0,0,1,3.04,2.381,1.687,1.687,0,0,0,1.172.449c.043,0,.087,0,.131,0a1.574,1.574,0,0,0,1.214-.64,1.788,1.788,0,0,0,.394-1.292,1.719,1.719,0,0,0-.634-1.249,17.561,17.561,0,0,0-1.664-1.264" transform="translate(18.405 0.221)" fill="#600d15"/>
        <path id="パス_44071" data-name="パス 44071" d="M165.53,15.891c-.805-1.111-1.66-2.21-2.54-3.27a35.381,35.381,0,0,0-2.545-2.775,1.948,1.948,0,0,0-1.538-.578,2.148,2.148,0,0,0-1.509.7,1.946,1.946,0,0,0-.579,1.537,2.082,2.082,0,0,0,.674,1.479,22.523,22.523,0,0,1,2.251,2.354c.772.924,1.52,1.888,2.227,2.866a24.811,24.811,0,0,1,1.807,2.875,2.143,2.143,0,0,0,1.28,1.021,2.189,2.189,0,0,0,.636.1,1.98,1.98,0,0,0,.985-.265,2.034,2.034,0,0,0,1.053-1.291,2.072,2.072,0,0,0-.19-1.616,29.216,29.216,0,0,0-2.009-3.139" transform="translate(17.852 1.055)" fill="#600d15"/>
        <path id="パス_44072" data-name="パス 44072" d="M93.375,6.517a1.953,1.953,0,0,0-1.513-.673h0q-2.653.042-6.01.084c-1.329.016-2.723.046-4.144.082v4.15c1.366-.023,2.71-.041,4-.049,2.183-.011,4.209.008,6.029.061a2.185,2.185,0,0,0,1.536-.591,2.127,2.127,0,0,0,.691-1.509,2.266,2.266,0,0,0-.589-1.555" transform="translate(9.301 0.665)" fill="#4c799c"/>
        <path id="パス_44073" data-name="パス 44073" d="M118.362,13.27a7.019,7.019,0,0,0-4.752-2.624c-.257,1.156-.595,2.525-1.031,4.039a4.869,4.869,0,0,1,1.122.343,2.927,2.927,0,0,1,1.653,2.151,12.466,12.466,0,0,1-.023,4.191,25.571,25.571,0,0,1-1.1,4.98,6.123,6.123,0,0,1-1.478,2.478,3.308,3.308,0,0,1-1.816.845,9.984,9.984,0,0,1-2.327-.042,1.992,1.992,0,0,0-1.584.408,2.029,2.029,0,0,0-.81,1.44,1.98,1.98,0,0,0,.407,1.583,2.035,2.035,0,0,0,1.449.811,11.414,11.414,0,0,0,5.63-.493,7.5,7.5,0,0,0,3.813-3.7,23.824,23.824,0,0,0,2.1-7.7c.532-3.839.112-6.772-1.25-8.716" transform="translate(12.088 1.212)" fill="#9f8b64"/>
        <path id="パス_44074" data-name="パス 44074" d="M110.576,15.473c.045,0,1.963-8.934,2.1-11.03a2.115,2.115,0,0,0-.548-1.569,2.052,2.052,0,0,0-1.457-.713,2.119,2.119,0,0,0-1.568.547,2.09,2.09,0,0,0-.714,1.5,45.435,45.435,0,0,1-1.148,7.38q-1.771.12-3.633.277-1.971.165-3.966.374a2.028,2.028,0,0,0-1.41.787,2.28,2.28,0,0,0-.493,1.592,1.988,1.988,0,0,0,.792,1.436,2.313,2.313,0,0,0,1.592.468q1.656-.207,3.248-.372,1.377-.14,2.708-.285a65.8,65.8,0,0,1-3.278,8.262,37.636,37.636,0,0,1-4.712,7.572,2.042,2.042,0,0,0-.453,1.6,2.176,2.176,0,0,0,.83,1.446,2.055,2.055,0,0,0,1.3.446c.088,0,.176-.006.267-.013a1.975,1.975,0,0,0,1.435-.812,42.578,42.578,0,0,0,3.714-5.737,66.483,66.483,0,0,0,3.1-6.556,65.236,65.236,0,0,0,2.3-6.6" transform="translate(11.112 0.246)" fill="#600d15"/>
        <path id="パス_44075" data-name="パス 44075" d="M146.387,19.413l-.036-.013a63.723,63.723,0,0,0,2.4-8.039h-.019a44.91,44.91,0,0,0,1.049-6.918,2.118,2.118,0,0,0-.549-1.568,2.093,2.093,0,0,0-1.5-.714,2.066,2.066,0,0,0-1.527.548,2.08,2.08,0,0,0-.715,1.491c-.081,1.087-.219,2.293-.412,3.587-.183,1.226-.43,2.5-.735,3.8q-1.773.122-3.656.277-1.992.167-3.944.373a2.067,2.067,0,0,0-1.452.789,2.126,2.126,0,0,0-.453,1.592,2,2,0,0,0,.793,1.436,2.312,2.312,0,0,0,1.592.469q1.654-.207,3.228-.372,1.36-.144,2.69-.287a61.816,61.816,0,0,1-3.24,8.264,37.612,37.612,0,0,1-4.713,7.573,2.037,2.037,0,0,0-.451,1.6,2.232,2.232,0,0,0,.8,1.451,2.195,2.195,0,0,0,1.321.44,2.612,2.612,0,0,0,.262-.014,2.105,2.105,0,0,0,1.455-.811,42.7,42.7,0,0,0,3.714-5.739,66.267,66.267,0,0,0,3.1-6.556c.361-.882.686-1.769,1-2.654" transform="translate(15.336 0.245)" fill="#9f8b64"/>
        <path id="パス_44076" data-name="パス 44076" d="M155.466,13.273a7.1,7.1,0,0,0-4.885-2.651c-.257,1.156-.595,2.527-1.031,4.044a5.143,5.143,0,0,1,1.236.365,2.923,2.923,0,0,1,1.673,2.15,12.53,12.53,0,0,1-.025,4.191,25.489,25.489,0,0,1-1.1,4.98,6.136,6.136,0,0,1-1.477,2.478,3.311,3.311,0,0,1-1.817.845,9.953,9.953,0,0,1-2.33-.042,1.988,1.988,0,0,0-1.605.411,2.045,2.045,0,0,0-.785,1.437,1.981,1.981,0,0,0,.405,1.583,2.039,2.039,0,0,0,1.45.811,11.318,11.318,0,0,0,5.61-.493,7.517,7.517,0,0,0,3.79-3.7,24.468,24.468,0,0,0,2.145-7.7c.532-3.839.111-6.772-1.251-8.716" transform="translate(16.312 1.209)" fill="#4c799c"/>
        <path id="パス_44077" data-name="パス 44077" d="M201.737,13.413c-1.858-1.713-4.536-2.582-7.963-2.582a14.46,14.46,0,0,0-4.777.843,22.986,22.986,0,0,0-2.616,1.139v4.5c.749-.44,1.5-.842,2.245-1.186a12.263,12.263,0,0,1,5.148-1.177,7.443,7.443,0,0,1,4.8,1.388,5,5,0,0,1,1.681,4.1,6.264,6.264,0,0,1-2.467,5.109c-1.667,1.33-4.287,2.279-7.786,2.822a2.111,2.111,0,0,0-1.423.855,2.148,2.148,0,0,0,2.091,3.384,25.5,25.5,0,0,0,6.978-1.971A13.118,13.118,0,0,0,201.88,27.6a9.95,9.95,0,0,0,2.088-3.6,12.236,12.236,0,0,0,.571-3.563,9.138,9.138,0,0,0-2.8-7.024" transform="translate(21.218 1.233)" fill="#600d15"/>
        <path id="パス_44078" data-name="パス 44078" d="M185.222,24.088V6.317h.011V2.1A2.016,2.016,0,0,0,184.608.6a2.128,2.128,0,0,0-2.955,0,2.013,2.013,0,0,0-.626,1.507V8.378q-.852.154-2.092.372-1.408.251-2.8.5c-.931.166-1.714.319-2.339.454a1.914,1.914,0,0,0-1.352.914,2.2,2.2,0,0,0,.645,2.994,2.139,2.139,0,0,0,1.64.287q.785-.165,2.008-.415t2.514-.539q1.036-.236,1.773-.387V18.59c-1.4,1.113-2.8,2.295-4.156,3.514q-2.1,1.888-4.126,3.754a1.961,1.961,0,0,0-.65,1.44,2.178,2.178,0,0,0,.558,1.532,2.106,2.106,0,0,0,1.474.64,2.134,2.134,0,0,0,1.485-.552l2.964-2.8c.819-.773,1.642-1.529,2.452-2.254v11.44a2.1,2.1,0,0,0,4.206,0V24.088Z" transform="translate(19.591)" fill="#4c799c"/>
        <path id="パス_44079" data-name="パス 44079" d="M74.313,6.3c-1.863.079-3.721.164-5.554.258-2.9.151-5.565.327-7.9.519a1.9,1.9,0,0,0-1.471.772,2.175,2.175,0,0,0-.449,1.607,1.992,1.992,0,0,0,.792,1.437,2.388,2.388,0,0,0,1.582.47c2.462-.221,5.124-.431,7.912-.622,1.686-.116,3.386-.189,5.085-.275Z" transform="translate(6.709 0.717)" fill="#9f8b64"/>
        <path id="パス_44080" data-name="パス 44080" d="M80.969,16.686q-.08-1.413-.182-2.982c-.062-.976-.144-11.258-.144-11.258a2.158,2.158,0,0,0-.617-1.54A2.048,2.048,0,0,0,78.5.261,2.113,2.113,0,0,0,76.956.9a2.115,2.115,0,0,0-.642,1.544V5.5h.062v5.583c.028.557.069,1.1.126,1.609q.08.73.175,1.421a8.188,8.188,0,0,0-1.452-.135,6.974,6.974,0,0,0-4.937,1.8,6.359,6.359,0,0,0-1.933,4.866,5.588,5.588,0,0,0,1.907,4.61A7.506,7.506,0,0,0,75.1,26.767a5.9,5.9,0,0,0,3.036-.808,9.052,9.052,0,0,1-2.161,3.716A13.932,13.932,0,0,1,70.522,32.9a2.18,2.18,0,0,0-1.23,1.16,2.179,2.179,0,0,0,1.117,2.9,2.282,2.282,0,0,0,1.666.072,15.12,15.12,0,0,0,7.829-5.449,14.957,14.957,0,0,0,2.811-9.034,9.366,9.366,0,0,0-1.748-5.865M76.947,22.3a2.788,2.788,0,0,1-1.813.634,2.624,2.624,0,0,1-1.92-.633,2.319,2.319,0,0,1-.736-1.833,2.146,2.146,0,0,1,.769-1.849,3.1,3.1,0,0,1,2.021-.683,2.818,2.818,0,0,1,2.183.882q.072.483.109.9c.027.3.041.593.041.888a2.138,2.138,0,0,1-.653,1.7" transform="translate(7.782 0.03)" fill="#600d15"/>
      </g>
    </g>
  </g>
</svg>
