<svg xmlns="http://www.w3.org/2000/svg" xmlns:xlink="http://www.w3.org/1999/xlink" width="120.516" height="42.571" viewBox="0 0 120.516 42.571">
  <defs>
    <clipPath id="clip-path">
      <rect id="長方形_23393" data-name="長方形 23393" width="120.516" height="30.597" fill="none"/>
    </clipPath>
  </defs>
  <g id="グループ_9418" data-name="グループ 9418" transform="translate(-240 -123.429)">
    <text id="area_platform" data-name="area platform" transform="translate(270.996 164)" fill="#600d15" font-size="6" font-family="ZenMaruGothic-Black, Zen Maru Gothic" font-weight="800" letter-spacing="0.1em"><tspan x="0" y="0">area platform</tspan></text>
    <g id="グループ_9389" data-name="グループ 9389" transform="translate(240 123.429)">
      <g id="グループ_9388" data-name="グループ 9388" transform="translate(0 0)" clip-path="url(#clip-path)">
        <path id="パス_44039" data-name="パス 44039" d="M82.039,17.366a1.794,1.794,0,0,1-1.267-.739,2.13,2.13,0,0,1-.393-1.5q.106-.831.143-2.23t.05-2.959q.013-1.561-.028-3T80.419,4.6a1.875,1.875,0,0,1,.461-1.49,1.922,1.922,0,0,1,1.353-.673,2.036,2.036,0,0,1,1.459.442,1.788,1.788,0,0,1,.674,1.337q.052.9.088,2.435t.033,3.237q-.005,1.707-.034,3.266t-.141,2.52a1.659,1.659,0,0,1-.758,1.314,2.311,2.311,0,0,1-1.515.376" transform="translate(-41.802 -1.266)" fill="#9f8b64"/>
        <path id="パス_44040" data-name="パス 44040" d="M83.727,30.532a1.813,1.813,0,0,1-1.527.161,1.992,1.992,0,0,1-1.205-.965,2.019,2.019,0,0,1-.177-1.511,1.921,1.921,0,0,1,.916-1.19A14.945,14.945,0,0,0,85.077,24.6C89.23,20.5,90.9,13.666,90.9,8.039q0-1.35-.08-2.894a24.537,24.537,0,0,0-.241-2.54,1.893,1.893,0,0,1,.434-1.479A1.982,1.982,0,0,1,92.346.387,1.877,1.877,0,0,1,93.809.8a1.972,1.972,0,0,1,.723,1.35A15.8,15.8,0,0,1,94.71,4q.048,1.078.064,2.138t.016,1.9c0,8.488-3.355,18.148-11.063,22.492" transform="translate(-41.996 -0.193)" fill="#600d15"/>
        <path id="パス_44041" data-name="パス 44041" d="M9.9,14.492H26.2a1.9,1.9,0,0,0,1.415-.595A1.986,1.986,0,0,0,26.2,10.505H9.9A1.989,1.989,0,0,0,8.485,13.9a1.9,1.9,0,0,0,1.415.595" transform="translate(-4.112 -5.464)" fill="#600d15"/>
        <path id="パス_44042" data-name="パス 44042" d="M28.911,26.528V22.575a1.993,1.993,0,1,0-3.987,0v3.952a1.993,1.993,0,0,0,3.987,0" transform="translate(-12.964 -10.705)" fill="#9f8b64"/>
        <path id="パス_44043" data-name="パス 44043" d="M27.474,39.441a1.873,1.873,0,0,0-1.4-.579H1.961a1.887,1.887,0,0,0-1.383.579,2,2,0,0,0,0,2.814,1.863,1.863,0,0,0,1.383.6H26.075a1.849,1.849,0,0,0,1.4-.6,2.041,2.041,0,0,0,0-2.814" transform="translate(0 -20.213)" fill="#4c799c"/>
        <path id="パス_44044" data-name="パス 44044" d="M156.777,18.494a1.644,1.644,0,0,0-1.952.959l-.045.1a19.836,19.836,0,0,1-5.032,6.848,59.578,59.578,0,0,1-11.534,7.664,1.846,1.846,0,0,0-1.029,1.109,2.064,2.064,0,0,0,.032,1.56,2.034,2.034,0,0,0,1.125,1.045,1.9,1.9,0,0,0,1.511-.016,59.745,59.745,0,0,0,12.788-8.612,24.641,24.641,0,0,0,5.867-8.279l.007-.018a1.634,1.634,0,0,0-1.093-2.184Z" transform="translate(-71.282 -9.588)" fill="#4c799c"/>
        <path id="パス_44045" data-name="パス 44045" d="M142.259,9.682h12.057c.121,0,.237,0,2.729.009a1.986,1.986,0,0,0,.019-3.971c-2.053-.015-2.314-.024-2.587-.024H142.259a1.888,1.888,0,0,0-1.383.579,2,2,0,0,0,0,2.814,1.86,1.86,0,0,0,1.383.595" transform="translate(-72.972 -2.962)" fill="#600d15"/>
        <path id="パス_44046" data-name="パス 44046" d="M189.63.949A3.1,3.1,0,0,0,187.363,0a3.132,3.132,0,0,0-2.3.949,3.131,3.131,0,0,0-.949,2.3,3.128,3.128,0,0,0,.949,2.3,3.128,3.128,0,0,0,2.3.949,3.1,3.1,0,0,0,2.267-.949,3.13,3.13,0,0,0,.948-2.3,3.132,3.132,0,0,0-.948-2.3m-1.286,3.279a1.333,1.333,0,0,1-.981.4,1.385,1.385,0,0,1-1-.4,1.307,1.307,0,0,1-.418-.98,1.309,1.309,0,0,1,.418-.981,1.388,1.388,0,0,1,1-.4,1.372,1.372,0,0,1,1.383,1.383,1.334,1.334,0,0,1-.4.98" transform="translate(-95.763 0)" fill="#9f8b64"/>
        <path id="パス_44047" data-name="パス 44047" d="M215.022,5.836H227.3a1.887,1.887,0,0,0,1.366-.547,1.808,1.808,0,0,0,.562-1.35,1.848,1.848,0,0,0-.562-1.383A1.889,1.889,0,0,0,227.3,2.01H215.022a1.946,1.946,0,0,0-1.383.547,1.821,1.821,0,0,0-.579,1.383,1.783,1.783,0,0,0,.579,1.35,1.944,1.944,0,0,0,1.383.547" transform="translate(-110.817 -1.045)" fill="#4c799c"/>
        <path id="パス_44048" data-name="パス 44048" d="M227.352,15.562a2.161,2.161,0,0,0-1.574-.62H224.72v.05c-.806-.03-2.108-.05-2.155-.05H210.734a1.946,1.946,0,0,0-1.383.546,1.821,1.821,0,0,0-.578,1.383,1.872,1.872,0,0,0,.521,1.342,2.163,2.163,0,0,0,1.574.62H222.4c.019,0,1.456-.017,2.315-.043v.043h1.192a1.948,1.948,0,0,0,1.383-.546,1.821,1.821,0,0,0,.578-1.383,1.87,1.87,0,0,0-.522-1.342" transform="translate(-108.587 -7.771)" fill="#600d15"/>
        <path id="パス_44049" data-name="パス 44049" d="M232.55,28.423a1.888,1.888,0,0,0-3.622-.845.9.9,0,0,0-.2.251,14.828,14.828,0,0,1-4.7,5.038,22.683,22.683,0,0,1-7.149,3.23,2,2,0,0,0-1.389,2.435,1.86,1.86,0,0,0,.915,1.21,2.014,2.014,0,0,0,1.486.21,25.7,25.7,0,0,0,8.543-3.991,19.084,19.084,0,0,0,5.71-6.336q.15-.279.28-.549a.839.839,0,0,0,.073-.267,1.875,1.875,0,0,0,.063-.388" transform="translate(-112.038 -13.746)" fill="#9f8b64"/>
      </g>
    </g>
  </g>
</svg>
